<?xml version="1.0" standalone="no"?>
<!DOCTYPE svg PUBLIC "-//W3C//DTD SVG 20010904//EN"
 "http://www.w3.org/TR/2001/REC-SVG-20010904/DTD/svg10.dtd">
<svg version="1.0" xmlns="http://www.w3.org/2000/svg"
 width="1184.000000pt" height="1184.000000pt" viewBox="0 0 1184.000000 1184.000000"
 preserveAspectRatio="xMidYMid meet">
<metadata>
Created by potrace 1.14, written by Peter Selinger 2001-2017
</metadata>
<g transform="translate(0.000000,1184.000000) scale(0.100000,-0.100000)"
fill="#000000" stroke="none">
<path d="M3608 9755 c-1 -1 -41 -5 -88 -9 -47 -4 -98 -8 -115 -10 -16 -2 -55
-7 -85 -10 -30 -4 -62 -9 -70 -11 -8 -2 -35 -7 -60 -10 -24 -4 -47 -8 -50 -10
-3 -1 -25 -6 -50 -9 -25 -3 -60 -10 -78 -15 -18 -5 -36 -10 -40 -11 -4 0 -25
-5 -47 -11 -22 -6 -49 -13 -60 -15 -31 -5 -243 -70 -310 -94 -75 -27 -257
-100 -270 -108 -5 -4 -12 -7 -15 -7 -9 -1 -275 -135 -315 -160 -22 -13 -59
-34 -82 -46 -24 -13 -43 -27 -43 -32 0 -6 -3 -8 -6 -4 -3 3 -28 -10 -55 -29
-27 -19 -53 -34 -59 -34 -5 0 -10 -4 -10 -10 0 -5 -7 -10 -15 -10 -8 0 -15 -3
-15 -8 0 -4 -18 -18 -40 -32 -22 -14 -40 -28 -40 -32 0 -5 -5 -8 -11 -8 -6 0
-23 -10 -38 -22 -15 -13 -42 -34 -61 -48 -18 -14 -38 -29 -44 -35 -6 -5 -38
-32 -71 -60 -213 -177 -420 -397 -594 -630 -46 -60 -89 -118 -97 -128 -8 -9
-14 -22 -14 -27 0 -6 -4 -10 -10 -10 -5 0 -10 -7 -10 -15 0 -8 -5 -15 -11 -15
-5 0 -7 -4 -4 -10 3 -5 1 -10 -5 -10 -6 0 -14 -10 -19 -23 -5 -13 -23 -44 -40
-69 -17 -25 -31 -50 -31 -56 0 -6 -3 -12 -7 -14 -17 -7 -206 -381 -206 -405 0
-7 -4 -13 -8 -13 -4 0 -10 -12 -14 -27 -3 -15 -15 -46 -26 -70 -10 -23 -19
-44 -19 -47 0 -2 -5 -17 -12 -33 -6 -15 -12 -30 -13 -33 0 -3 -17 -54 -37
-115 -31 -95 -62 -202 -73 -255 -2 -8 -4 -15 -5 -15 -1 0 -3 -8 -5 -19 -2 -10
-9 -39 -15 -65 -6 -25 -13 -60 -15 -76 -2 -17 -4 -31 -6 -32 -3 -4 -5 -15 -14
-73 -5 -30 -9 -57 -10 -60 -1 -3 -5 -34 -9 -70 -5 -36 -10 -72 -11 -81 -18
-97 -26 -614 -12 -759 3 -36 9 -92 12 -125 7 -70 52 -334 65 -385 5 -19 12
-49 15 -67 3 -18 9 -42 14 -55 5 -13 9 -27 10 -33 5 -31 56 -206 71 -240 5
-11 14 -37 20 -58 7 -22 18 -51 26 -65 8 -15 14 -32 14 -37 0 -15 59 -152 116
-270 26 -55 48 -102 49 -105 0 -3 8 -16 16 -30 30 -48 109 -190 109 -195 0 -3
5 -11 10 -18 6 -7 44 -63 86 -126 229 -348 531 -670 864 -922 47 -35 87 -66
90 -69 15 -15 71 -50 80 -50 5 0 10 -3 10 -8 0 -4 33 -27 73 -52 39 -24 73
-48 75 -52 2 -4 8 -8 13 -8 6 0 47 -22 92 -48 79 -47 347 -182 361 -182 3 0
25 -9 49 -20 70 -32 145 -60 287 -106 183 -60 221 -71 395 -110 40 -10 235
-43 290 -50 184 -23 265 -27 515 -28 189 0 405 7 405 14 0 1 9 3 105 14 25 3
56 8 70 10 14 3 47 7 74 11 27 3 53 8 57 11 4 2 20 6 36 8 61 8 109 19 121 29
7 5 15 7 18 4 3 -3 20 -1 37 4 18 6 41 12 52 14 58 12 198 59 483 158 17 7 32
15 32 19 0 5 7 8 15 8 18 0 318 146 390 190 28 17 57 33 65 37 8 3 28 16 45
27 58 41 74 46 100 34 14 -6 25 -15 25 -20 0 -4 7 -8 15 -8 8 0 15 -4 15 -10
0 -5 4 -10 10 -10 5 0 42 -19 82 -43 118 -70 350 -181 483 -232 39 -15 84 -33
100 -40 17 -8 44 -17 60 -21 17 -4 35 -10 40 -14 8 -5 81 -28 115 -36 3 0 12
-3 20 -7 16 -6 103 -30 107 -28 2 0 21 -6 43 -14 22 -8 40 -12 40 -10 0 2 23
-3 52 -11 29 -7 54 -11 57 -9 2 3 10 0 18 -6 7 -6 13 -9 13 -6 0 3 14 2 31 -3
27 -8 91 -18 214 -35 166 -23 252 -28 510 -29 219 0 359 6 445 19 14 2 48 6
75 10 28 3 77 11 110 17 33 5 69 12 80 13 11 1 20 3 20 4 0 1 13 4 30 6 16 2
51 9 76 15 26 6 55 13 65 15 11 2 19 4 19 5 0 1 7 3 15 5 70 14 297 82 355
105 91 36 184 70 193 70 7 0 12 5 12 10 0 6 6 10 14 10 8 0 48 16 89 35 41 19
80 35 86 35 6 0 11 4 11 9 0 5 14 12 30 16 17 4 30 10 30 14 0 4 21 17 48 29
26 12 65 33 87 47 22 14 49 29 60 34 11 5 38 21 59 36 22 15 50 31 63 36 13 5
23 13 23 19 0 5 5 10 11 10 9 0 81 46 114 72 6 5 42 32 80 60 96 72 179 139
183 149 2 5 7 9 11 9 11 0 120 101 235 216 154 155 222 234 345 399 46 61 89
118 97 128 8 9 14 22 14 27 0 6 4 10 10 10 5 0 12 11 16 25 3 14 10 25 15 25
5 0 13 10 18 23 5 13 21 41 36 63 15 21 31 48 36 59 5 11 23 43 40 70 16 28
33 58 36 68 3 9 9 17 14 17 5 0 8 3 7 8 -1 4 25 61 56 127 32 66 74 161 93
210 19 50 39 95 43 100 5 6 8 14 8 18 0 4 4 20 10 35 31 85 103 327 116 395
15 71 17 81 21 87 2 4 7 29 11 56 3 27 8 51 9 54 2 3 6 24 9 46 4 22 8 49 10
60 9 48 22 155 33 274 15 169 7 660 -12 759 -2 13 -7 47 -10 75 -12 107 -18
144 -50 289 -9 39 -16 82 -16 89 0 4 -6 26 -14 48 -8 22 -14 41 -14 43 3 8
-56 208 -71 242 -5 11 -14 37 -20 58 -7 22 -18 51 -26 65 -8 15 -14 32 -14 37
0 13 -60 157 -89 214 -12 22 -18 41 -14 41 5 0 4 4 -2 8 -9 6 -57 97 -60 112
0 3 -8 16 -16 30 -30 48 -109 190 -109 195 0 3 -5 11 -10 18 -6 7 -44 63 -85
125 -60 91 -182 259 -205 282 -3 3 -27 32 -55 65 -170 204 -387 411 -605 576
-47 35 -87 66 -90 69 -16 16 -100 70 -109 70 -6 0 -11 4 -11 8 0 4 -27 24 -60
43 -33 18 -60 37 -60 42 0 4 -5 7 -11 7 -6 0 -47 22 -92 48 -91 54 -317 166
-417 208 -145 60 -401 146 -503 169 -10 2 -27 7 -37 10 -10 3 -29 8 -42 10
-24 5 -50 10 -140 30 -59 13 -127 25 -168 30 -25 3 -56 8 -70 10 -14 2 -45 6
-70 9 -25 3 -76 8 -115 13 -120 13 -735 7 -735 -7 0 -3 -12 -6 -27 -6 -29 0
-122 -11 -157 -19 -12 -2 -43 -7 -70 -10 -27 -3 -53 -8 -57 -11 -4 -2 -20 -6
-36 -8 -15 -3 -39 -7 -53 -10 -62 -14 -77 -17 -100 -22 -14 -3 -63 -16 -110
-30 -47 -13 -94 -27 -104 -29 -11 -3 -63 -19 -115 -37 -53 -18 -98 -32 -101
-33 -3 0 -9 -3 -15 -7 -5 -3 -51 -22 -101 -41 -50 -19 -100 -40 -110 -45 -47
-24 -159 -74 -163 -72 -2 1 -7 -2 -10 -7 -3 -5 -31 -21 -61 -36 -30 -15 -75
-39 -100 -54 -25 -14 -60 -34 -78 -45 -54 -30 -87 -52 -94 -62 -7 -10 -50 10
-133 63 -52 33 -119 70 -225 123 -47 24 -88 48 -92 53 -4 6 -8 7 -8 2 0 -4
-23 4 -50 18 -63 32 -284 121 -325 131 -17 4 -34 10 -40 14 -10 6 -80 28 -114
35 -9 2 -29 8 -46 15 -16 6 -31 11 -32 11 -2 0 -8 1 -15 4 -41 13 -240 56
-338 74 -113 20 -146 25 -245 36 -27 4 -63 8 -80 11 -34 5 -581 14 -587 9z"/>
</g>
</svg>
